<?xml version="1.0" encoding="iso-8859-1"?>
<!-- Generator: Adobe Illustrator 19.0.0, SVG Export Plug-In . SVG Version: 6.00 Build 0)  -->
<svg version="1.1" id="Layer_1" xmlns="http://www.w3.org/2000/svg" xmlns:xlink="http://www.w3.org/1999/xlink" x="0px" y="0px"
	 viewBox="0 0 376 376" style="enable-background:new 0 0 376 376;" xml:space="preserve">
<g id="XMLID_819_">
	<path id="XMLID_820_" style="fill:#FF9811;" d="M318.332,200v-25h-30v25c0,11.028-8.972,20-20,20h-0.333
		c-19.623,0-28.008-24.365-12.309-45.808c0.273-0.363,0.544-0.73,0.813-1.098c0.035-0.045,0.065-0.09,0.101-0.136l-0.002,0.001
		C269.945,154.644,278,130.921,278,105.001c0-57.989-40.294-105-89.999-105.001l0,0H188l0,0l0,0c-49.706,0.001-90,47.011-90,105.001
		c0,25.921,8.055,49.643,21.398,67.958l-0.002-0.001c0.035,0.045,0.065,0.091,0.101,0.136c0.269,0.368,0.539,0.735,0.813,1.098
		C136.008,195.635,127.623,220,108,220h-0.334c-11.028,0-20-8.972-20-20v-25h-30v25c0,27.491,22.302,49.865,49.763,49.994
		c-2.108,8.783-10.008,15.339-19.429,15.339H63v30h25c19.768,0,36.89-11.533,45-28.221V285c0,11.028-8.972,20-20,20H88v30h25
		c19.768,0,36.89-11.532,45-28.221V326c0,11.028-8.972,20-20,20v30c27.564,0,49.989-22.419,49.999-49.98
		c0.01,27.561,22.436,49.98,50,49.98v-30c-11.028,0-20-8.972-20-20v-19.221c8.11,16.689,25.232,28.221,45,28.221h25v-30h-25
		c-11.028,0-20-8.972-20-20v-17.888c8.11,16.689,25.232,28.221,45,28.221h25v-30h-25c-9.421,0-17.321-6.556-19.429-15.339
		C296.031,249.865,318.332,227.491,318.332,200z"/>
	<path id="XMLID_821_" style="fill:#FF5023;" d="M278,105.001c0,25.921-8.055,49.643-21.398,67.958l0.002-0.001
		c-0.035,0.045-0.065,0.091-0.101,0.136c-0.269,0.368-0.539,0.735-0.813,1.098C239.992,195.635,248.378,220,268,220h0.333
		c11.028,0,20-8.972,20-20v-25h30v25c0,27.491-22.302,49.865-49.763,49.994c2.108,8.783,10.008,15.339,19.429,15.339h25v30h-25
		c-19.768,0-36.89-11.533-45-28.221V285c0,11.028,8.972,20,20,20h25v30h-25c-19.768,0-36.89-11.532-45-28.221V326
		c0,11.028,8.972,20,20,20v30c-27.57,0-50-22.43-50-50c0,0,0.001-326,0-326C237.706,0,278,47.011,278,105.001z"/>
	<g id="XMLID_822_">
		<circle id="XMLID_823_" style="fill:#802812;" cx="148" cy="160.001" r="10"/>
	</g>
	<g id="XMLID_824_">
		<circle id="XMLID_825_" style="fill:#802812;" cx="228" cy="160.001" r="10"/>
	</g>
</g>
<g>
</g>
<g>
</g>
<g>
</g>
<g>
</g>
<g>
</g>
<g>
</g>
<g>
</g>
<g>
</g>
<g>
</g>
<g>
</g>
<g>
</g>
<g>
</g>
<g>
</g>
<g>
</g>
<g>
</g>
</svg>
